<?xml version="1.0" standalone="no"?>
<!DOCTYPE svg PUBLIC "-//W3C//DTD SVG 20010904//EN"
 "http://www.w3.org/TR/2001/REC-SVG-20010904/DTD/svg10.dtd">
<svg version="1.0" xmlns="http://www.w3.org/2000/svg"
 width="128.000000pt" height="128.000000pt" viewBox="0 0 128.000000 128.000000"
 preserveAspectRatio="xMidYMid meet">
<metadata>
Created by potrace 1.11, written by Peter Selinger 2001-2013
</metadata>
<g transform="translate(0.000000,128.000000) scale(0.100000,-0.100000)"
fill="#000000" stroke="none">
<path d="M292 778 l3 -323 26 -55 c47 -100 126 -154 247 -169 170 -21 311 39
371 157 35 69 41 135 41 427 l0 285 -84 0 -85 0 -3 -312 c-3 -292 -4 -315 -23
-347 -36 -61 -67 -76 -154 -76 -92 0 -123 16 -152 78 -17 38 -19 69 -19 350
l0 307 -86 0 -85 0 3 -322z"/>
</g>
</svg>
